<svg xmlns="http://www.w3.org/2000/svg" viewBox="0 0 280 220" fill="none">
  <g stroke="#160572" stroke-width="2.5" stroke-linecap="round" stroke-linejoin="round">
    <g class="garden-cyclist-wheel-back">
      <circle cx="57" cy="171" r="36" fill="#160572" stroke="#f2ebe6" stroke-width="6"/>
      <path d="M57 138v66m-33-33h66m-56-23 46 46m-46 0 46-46" stroke="#d98199" stroke-width="2"/>
      <circle cx="57" cy="171" r="6" fill="#f2ebe6"/>
    </g>
    <g class="garden-cyclist-wheel-front">
      <circle cx="224" cy="171" r="36" fill="#160572" stroke="#f2ebe6" stroke-width="6"/>
      <path d="M224 138v66m-33-33h66m-56-23 46 46m-46 0 46-46" stroke="#d98199" stroke-width="2"/>
      <circle cx="224" cy="171" r="6" fill="#f2ebe6"/>
    </g>
    <path d="M57 170 96 114l32 56H57Zm71 0 61-60H95m94 0 35 60m-35-60-9-26 24-6" stroke="#160572" stroke-width="12"/>
    <path d="M57 170 96 114l32 56H57Zm71 0 61-60H95m94 0 35 60m-35-60-9-26 24-6" stroke="#24e3dc" stroke-width="7"/>
    <path d="m87 112-5-16m-14 0h37" stroke="#160572" stroke-width="10"/>
    <path d="M68 95h37" stroke="#f2ebe6" stroke-width="6"/>
    <path d="M202 79h7c9 0 14 10 8 17" stroke="#f2ebe6" stroke-width="7"/>
    <path d="M202 79h7c9 0 14 10 8 17" stroke="#160572" stroke-width="2"/>
    <g class="garden-cyclist-leg-back">
      <path d="M126 106 95 137l28 39 12-8-17-30 30-22" fill="#d98199"/>
      <path d="m121 171 4 11 25-2 1-7-17-6" fill="#f2ebe6"/>
      <path d="m124 182 29-2"/>
    </g>
    <g class="garden-cyclist-body">
      <path d="M111 110c-5-20 16-45 41-52l23 24-30 36c-12 4-25 2-34-8Z" fill="#ff7701"/>
      <path d="m128 76 22 30m-27-21 22 29" stroke="#f2ebe6" stroke-width="5"/>
      <path d="m151 61 4-13 18 5-3 18" fill="#eea883"/>
      <path d="M151 35c7-16 33-11 35 8l-2 9 7 8-10 3-8 10c-18-3-28-19-22-38Z" fill="#eea883"/>
      <path d="M153 46c-15-2-18-18-6-25 0-12 13-18 21-10 18-8 32 11 26 19-15-6-21-5-25 12l-7-3c-8-2-10 3-5 8Z" fill="#160572" stroke="#f2ebe6" stroke-width="1.5"/>
      <path d="M146 27c2-18 24-24 36-13 5 4 8 11 8 19-14-7-27-8-44-6Z" fill="#24e3dc" stroke="#160572" stroke-width="2.5"/>
      <path d="m158 15-4 11m17-14-3 14m-12 21 6 13 12 4" stroke="#160572"/>
      <path d="m177 47 1 1m-7 12 8 1"/>
      <path d="m159 77 12 17 27-9 7 12-34 16-26-23" fill="#eea883"/>
      <path d="m158 71 17 23-16 12-19-20" fill="#ff7701"/>
      <path d="m198 86 10-6 12 3-2 8-10 2-4 5" fill="#eea883"/>
      <path d="M119 109c-5-6-4-16 1-25l20-25-19-13-30 29c-11 14-11 29 0 40Z" fill="#d98199"/>
      <path d="m105 65 19 17m-5-22 19 15m-47 21 19 7"/>
      <path d="m105 91-21-29 19-12 21 29" fill="#f2ebe6"/>
      <ellipse cx="94" cy="56" rx="12" ry="5" transform="rotate(-33 94 56)" fill="#f2ebe6"/>
      <path d="m94 55 4 1-1 3m7 7 9 13m-2-18 9 13" stroke-width="1.6"/>
    </g>
    <g class="garden-cyclist-leg-front">
      <path d="M140 106c4 5 13 14 27 24l-18 36-14-6 10-26-31-11c-6-4-6-14-2-19" fill="#d98199"/>
      <path d="m135 156-6 12c7 6 19 9 30 8l3-7-13-10" fill="#f2ebe6"/>
      <path d="m129 168-2 5c9 7 22 9 35 7v-4m-19-15 6 7"/>
    </g>
    <g class="garden-cyclist-crank">
      <circle cx="128" cy="171" r="10" fill="#24e3dc"/>
      <circle cx="128" cy="171" r="3" fill="#160572"/>
      <path d="m128 171 23 8" stroke="#f2ebe6" stroke-width="4"/>
      <path d="M140 180h23" stroke="#160572" stroke-width="5"/>
    </g>
  </g>
</svg>
