<svg xmlns="http://www.w3.org/2000/svg" viewBox="0 0 800 800" fill="none">
  <title>An imaginative launch of paper planes and website compositions</title>
  <path d="M61 746h686" stroke="#160572" stroke-width="3"/>
  <path d="m316 357 367-165-161 303-31-143z" fill="#f2ebe6" stroke="#160572" stroke-width="3" stroke-linejoin="round"/>
  <path d="m491 352 192-160-161 303z" fill="#24e3dc" stroke="#160572" stroke-width="3" stroke-linejoin="round"/>
  <path d="m491 352-47 73 24-114 215-119z" fill="#006f8a" stroke="#160572" stroke-width="3" stroke-linejoin="round"/>
  <path d="m391 341 126-57m-108 73 53-24" stroke="#160572" stroke-width="5"/>
  <path d="m533 405 40-65m-22 77 25-42" stroke="#160572" stroke-width="4"/>
  <path d="M295 431c77-30 135-4 153 33 34 70-109 67-82 134 18 45 90 40 113 12" stroke="#160572" stroke-width="3" stroke-dasharray="11 12"/>
  <path d="m83 348 122-90 10 134-58-51z" fill="#ff7701" stroke="#160572" stroke-width="3" stroke-linejoin="round"/>
  <path d="m157 341 48-83 10 134z" fill="#d64e2e" stroke="#160572" stroke-width="3"/>
  <path d="m601 591 139-3-94 98 4-74z" fill="#e29675" stroke="#160572" stroke-width="3" stroke-linejoin="round"/>
  <path d="m650 612 90-24-94 98z" fill="#d64e2e" stroke="#160572" stroke-width="3"/>
  <path d="m197 516 13 98-49 111 26 10 67-101 20-91z" fill="#160572"/>
  <path d="m241 545 25 62 57 71 21-18-37-79-14-61z" fill="#006f8a" stroke="#160572" stroke-width="3"/>
  <path d="m163 718-8 25h66c5-6 2-13-14-15l-24-10" fill="#f2ebe6" stroke="#160572" stroke-width="3"/>
  <path d="m321 675 12 18 43-43c0-8-9-10-19 1l-18 13" fill="#f2ebe6" stroke="#160572" stroke-width="3"/>
  <path d="M193 414c-35 22-42 57-28 102 9 26 92 53 133 23l-7-63 52-42 24-52-21-8-26 43-37 8c-26-17-61-28-90-11Z" fill="#d64e2e" stroke="#160572" stroke-width="3" stroke-linejoin="round"/>
  <path d="M198 442c-20 25-12 48 16 62l53 7" stroke="#160572" stroke-width="3"/>
  <path d="m192 463-51-32-19 8 36 52 51 16" fill="#d64e2e" stroke="#160572" stroke-width="3" stroke-linejoin="round"/>
  <path d="m131 436-10-27-18-14-10 5 14 17-7-1-5 8 20 21" fill="#e29675" stroke="#160572" stroke-width="3" stroke-linejoin="round"/>
  <path d="m346 375 9-21 26-18 11 6-19 18 5 16-14 12" fill="#e29675" stroke="#160572" stroke-width="3" stroke-linejoin="round"/>
  <path d="m203 410 1-35 40-3 6 45c-15 17-34 6-47-7Z" fill="#e29675" stroke="#160572" stroke-width="3"/>
  <path d="M192 354c-2-29 34-48 57-19l3 18 15 10-14 8-5 22c-27 13-54-15-56-39Z" fill="#e29675" stroke="#160572" stroke-width="3" stroke-linejoin="round"/>
  <path d="M194 373c-25-10-22-44 1-54 19-8 45-3 59 12l-40 19-7 22-5-6z" fill="#160572"/>
  <path d="m240 350 5 1m-2 26 10-2" stroke="#160572" stroke-width="3" stroke-linecap="round"/>
  <path d="m433 683 38-92 92 38-38 92z" fill="#f2ebe6" stroke="#160572" stroke-width="3"/>
  <path d="m465 651 14-34 57 24-14 34z" fill="#ff7701"/>
  <path d="m455 674 57 24m-63-10 41 17" stroke="#160572" stroke-width="5"/>
  <path d="M648 743V686m0 30c-18-35-47-23-22-3l22 3Zm1 10c24-29 46-8 19 0h-19Z" fill="#24e3dc" stroke="#160572" stroke-width="3"/>
  <path d="m107 220 8-22m37 37 22-5m-74-49-12-19m481-2 13-28m53 21 21-15m-292 94-4-21" stroke="#160572" stroke-width="4" stroke-linecap="round"/>
  <path d="m563 484 7 21 22 2-17 14 5 22-19-12-18 12 5-22-17-14 22-2z" fill="#ff7701" stroke="#160572" stroke-width="2" stroke-linejoin="round"/>
</svg>
